# Blender 5.2.0 LTS
# www.blender.org
mtllib piece_mat.mtl
o Ipiece
v 2.000000 -0.500000 0.500000
v 2.000000 0.500000 0.500000
v 1.000000 -0.500000 0.500000
v -2.000000 -0.500000 0.500000
v -2.000000 0.500000 0.500000
v -1.000000 -0.500000 0.500000
v 0.000000 -0.500000 0.500000
v -1.000000 0.500000 0.500000
v -2.000000 -0.500000 -0.500000
v 1.000000 0.500000 0.500000
v -0.000000 0.500000 0.500000
v -2.000000 0.500000 -0.500000
v 2.000000 -0.500000 -0.500000
v -1.000000 -0.500000 -0.500000
v 2.000000 0.500000 -0.500000
v -1.000000 0.500000 -0.500000
v 1.000000 -0.500000 -0.500000
v 0.000000 -0.500000 -0.500000
v 1.000000 0.500000 -0.500000
v -0.000000 0.500000 -0.500000
vn -0.0000 -0.0000 1.0000
vn -0.0000 -0.0000 -1.0000
vn 1.0000 -0.0000 -0.0000
vn -0.0000 -1.0000 -0.0000
vn -0.0000 1.0000 -0.0000
vn -1.0000 -0.0000 -0.0000
vt 1.000000 1.000000
vt 0.000000 1.000000
vt 0.000000 0.000000
vt 1.000000 0.000000
s 1
usemtl mino3d_mat
f 1/1/1 2/2/1 10/3/1 3/4/1
f 17/3/2 19/4/2 15/1/2 13/2/2
f 13/3/3 15/4/3 2/1/3 1/2/3
f 3/4/4 17/1/4 13/2/4 1/3/4
f 19/1/5 10/2/5 2/3/5 15/4/5
f 3/1/1 10/2/1 11/3/1 7/4/1
f 18/3/2 20/4/2 19/1/2 17/2/2
f 7/4/4 18/1/4 17/2/4 3/3/4
f 20/1/5 11/2/5 10/3/5 19/4/5
f 7/1/1 11/2/1 8/3/1 6/4/1
f 14/3/2 16/4/2 20/1/2 18/2/2
f 6/4/4 14/1/4 18/2/4 7/3/4
f 16/1/5 8/2/5 11/3/5 20/4/5
f 6/1/1 8/2/1 5/3/1 4/4/1
f 4/1/6 5/2/6 12/3/6 9/4/6
f 9/3/2 12/4/2 16/1/2 14/2/2
f 4/4/4 9/1/4 14/2/4 6/3/4
f 12/1/5 5/2/5 8/3/5 16/4/5
