# Blender 5.2.0 LTS
# www.blender.org
mtllib piece_mat.mtl
o IpieceTri
v 2.000000 -0.500000 0.500000
v 2.000000 0.500000 0.500000
v 1.000000 -0.500000 0.500000
v -2.000000 -0.500000 0.500000
v -2.000000 0.500000 0.500000
v -1.000000 -0.500000 0.500000
v 0.000000 -0.500000 0.500000
v -1.000000 0.500000 0.500000
v -2.000000 -0.500000 -0.500000
v 1.000000 0.500000 0.500000
v -0.000000 0.500000 0.500000
v -2.000000 0.500000 -0.500000
v 2.000000 -0.500000 -0.500000
v -1.000000 -0.500000 -0.500000
v 2.000000 0.500000 -0.500000
v -1.000000 0.500000 -0.500000
v 1.000000 -0.500000 -0.500000
v 0.000000 -0.500000 -0.500000
v 1.000000 0.500000 -0.500000
v -0.000000 0.500000 -0.500000
vn -0.0000 -0.0000 1.0000
vn -0.0000 -0.0000 -1.0000
vn 1.0000 -0.0000 -0.0000
vn -0.0000 -1.0000 -0.0000
vn -0.0000 1.0000 -0.0000
vn -1.0000 -0.0000 -0.0000
vt 0.000000 1.000000
vt 1.000000 0.000000
vt 1.000000 1.000000
vt 0.000000 0.000000
s 1
usemtl mino3d_mat
f 2/1/1 3/2/1 1/3/1
f 19/2/2 13/1/2 17/4/2
f 15/2/3 1/1/3 13/4/3
f 17/3/4 1/4/4 3/2/4
f 10/1/5 15/2/5 19/3/5
f 10/1/1 7/2/1 3/3/1
f 20/2/2 17/1/2 18/4/2
f 18/3/4 3/4/4 7/2/4
f 11/1/5 19/2/5 20/3/5
f 11/1/1 6/2/1 7/3/1
f 16/2/2 18/1/2 14/4/2
f 14/3/4 7/4/4 6/2/4
f 8/1/5 20/2/5 16/3/5
f 8/1/1 4/2/1 6/3/1
f 5/1/6 9/2/6 4/3/6
f 12/2/2 14/1/2 9/4/2
f 9/3/4 6/4/4 4/2/4
f 5/1/5 16/2/5 12/3/5
f 2/1/1 10/4/1 3/2/1
f 19/2/2 15/3/2 13/1/2
f 15/2/3 2/3/3 1/1/3
f 17/3/4 13/1/4 1/4/4
f 10/1/5 2/4/5 15/2/5
f 10/1/1 11/4/1 7/2/1
f 20/2/2 19/3/2 17/1/2
f 18/3/4 17/1/4 3/4/4
f 11/1/5 10/4/5 19/2/5
f 11/1/1 8/4/1 6/2/1
f 16/2/2 20/3/2 18/1/2
f 14/3/4 18/1/4 7/4/4
f 8/1/5 11/4/5 20/2/5
f 8/1/1 5/4/1 4/2/1
f 5/1/6 12/4/6 9/2/6
f 12/2/2 16/3/2 14/1/2
f 9/3/4 14/1/4 6/4/4
f 5/1/5 8/4/5 16/2/5
