mtllib piece_mat.mtl
o IpieceTri
v -0.500000 -0.500000 2.000000
v -0.500000 0.500000 2.000000
v -0.500000 -0.500000 1.000000
v -0.500000 -0.500000 -2.000000
v -0.500000 0.500000 -2.000000
v -0.500000 -0.500000 -1.000000
v -0.500000 -0.500000 0.000000
v -0.500000 0.500000 -1.000000
v 0.500000 -0.500000 -2.000000
v -0.500000 0.500000 1.000000
v -0.500000 0.500000 0.000000
v 0.500000 0.500000 -2.000000
v 0.500000 -0.500000 2.000000
v 0.500000 -0.500000 -1.000000
v 0.500000 0.500000 2.000000
v 0.500000 0.500000 -1.000000
v 0.500000 -0.500000 1.000000
v 0.500000 -0.500000 0.000000
v 0.500000 0.500000 1.000000
v 0.500000 0.500000 0.000000
vn -1.0000 -0.0000 -0.0000
vn 1.0000 -0.0000 -0.0000
vn -0.0000 -0.0000 1.0000
vn -0.0000 -1.0000 -0.0000
vn -0.0000 1.0000 -0.0000
vn -0.0000 -0.0000 -1.0000
vt 0 1
vt 1 0
vt 1 1
vt 1 0
vt 0 1
vt 0 0
vt 1 1
vt 0 0
vt 1 0
vt 0 1
vt 1 0
vt 1 1
vt 0 0
vt 0 1
vt 0 0
usemtl mino3d_mat
f 2/1/1 3/2/1 1/3/1
f 19/4/2 13/5/2 17/6/2
f 15/4/3 1/5/3 13/6/3
f 17/7/4 1/8/4 3/9/4
f 10/10/5 15/11/5 19/7/5
f 10/1/1 7/2/1 3/3/1
f 20/4/2 17/5/2 18/6/2
f 18/7/4 3/8/4 7/9/4
f 11/10/5 19/11/5 20/7/5
f 11/1/1 6/2/1 7/3/1
f 16/4/2 18/5/2 14/6/2
f 14/7/4 7/8/4 6/9/4
f 8/10/5 20/11/5 16/7/5
f 8/1/1 4/2/1 6/3/1
f 5/1/6 9/2/6 4/3/6
f 12/4/2 14/5/2 9/6/2
f 9/7/4 6/8/4 4/9/4
f 5/10/5 16/11/5 12/12/5
f 2/1/1 10/13/1 3/2/1
f 19/4/2 15/7/2 13/5/2
f 15/4/3 2/7/3 1/5/3
f 17/7/4 13/14/4 1/8/4
f 10/10/5 2/15/5 15/11/5
f 10/1/1 11/13/1 7/2/1
f 20/4/2 19/7/2 17/5/2
f 18/7/4 17/14/4 3/8/4
f 11/10/5 10/15/5 19/11/5
f 11/1/1 8/13/1 6/2/1
f 16/4/2 20/7/2 18/5/2
f 14/7/4 18/14/4 7/8/4
f 8/10/5 11/15/5 20/11/5
f 8/1/1 5/13/1 4/2/1
f 5/1/6 12/13/6 9/2/6
f 12/4/2 16/7/2 14/5/2
f 9/7/4 14/14/4 6/8/4
f 5/10/5 8/15/5 16/11/5
