mtllib piece_mat.mtl
o Ipiece
v -0.500000 -0.500000 2.000000
v -0.500000 0.500000 2.000000
v -0.500000 -0.500000 1.000000
v -0.500000 -0.500000 -2.000000
v -0.500000 0.500000 -2.000000
v -0.500000 -0.500000 -1.000000
v -0.500000 -0.500000 0.000000
v -0.500000 0.500000 -1.000000
v 0.500000 -0.500000 -2.000000
v -0.500000 0.500000 1.000000
v -0.500000 0.500000 0.000000
v 0.500000 0.500000 -2.000000
v 0.500000 -0.500000 2.000000
v 0.500000 -0.500000 -1.000000
v 0.500000 0.500000 2.000000
v 0.500000 0.500000 -1.000000
v 0.500000 -0.500000 1.000000
v 0.500000 -0.500000 0.000000
v 0.500000 0.500000 1.000000
v 0.500000 0.500000 0.000000
vn -1.0000 -0.0000 -0.0000
vn 1.0000 -0.0000 -0.0000
vn -0.0000 -0.0000 1.0000
vn -0.0000 -1.0000 -0.0000
vn -0.0000 1.0000 -0.0000
vn -0.0000 -0.0000 -1.0000
vt 1 1
vt 0 1
vt 0 0
vt 1 0
vt 0 0
vt 1 0
vt 1 1
vt 0 1
vt 1 0
vt 0 1
vt 0 0
vt 0 1
vt 0 0
vt 1 0
vt 1 1
usemtl mino3d_mat
f 1/1/1 2/2/1 10/3/1 3/4/1
f 17/5/2 19/6/2 15/7/2 13/8/2
f 13/5/3 15/6/3 2/7/3 1/8/3
f 3/9/4 17/7/4 13/10/4 1/11/4
f 19/7/5 10/12/5 2/13/5 15/14/5
f 3/1/1 10/2/1 11/3/1 7/4/1
f 18/5/2 20/6/2 19/7/2 17/8/2
f 7/9/4 18/7/4 17/10/4 3/11/4
f 20/7/5 11/12/5 10/13/5 19/14/5
f 7/1/1 11/2/1 8/3/1 6/4/1
f 14/5/2 16/6/2 20/7/2 18/8/2
f 6/9/4 14/7/4 18/10/4 7/11/4
f 16/7/5 8/12/5 11/13/5 20/14/5
f 6/1/1 8/2/1 5/3/1 4/4/1
f 4/1/6 5/2/6 12/3/6 9/4/6
f 9/5/2 12/6/2 16/7/2 14/8/2
f 4/9/4 9/7/4 14/10/4 6/11/4
f 12/15/5 5/12/5 8/13/5 16/14/5
