# Blender 5.2.0 LTS
# www.blender.org
mtllib piece_mat.mtl
o JpieceTri
v -0.500000 -0.500000 0.500000
v -0.500000 -0.500000 -0.500000
v -0.500000 0.500000 -0.500000
v -0.500000 -0.500000 1.500000
v -0.500000 -0.500000 -1.500000
v -0.500000 0.500000 0.500000
v -0.500000 0.500000 -1.500000
v -0.500000 0.500000 1.500000
v 0.500000 -0.500000 -0.500000
v 0.500000 0.500000 -0.500000
v -0.500000 1.500000 1.500000
v 0.500000 -0.500000 -1.500000
v 0.500000 0.500000 -1.500000
v 0.500000 -0.500000 0.500000
v 0.500000 0.500000 0.500000
v -0.500000 1.500000 0.500000
v 0.500000 -0.500000 1.500000
v 0.500000 0.500000 1.500000
v 0.500000 1.500000 1.500000
v 0.500000 1.500000 0.500000
vn -1.0000 -0.0000 -0.0000
vn -0.0000 -0.0000 -1.0000
vn 1.0000 -0.0000 -0.0000
vn -0.0000 -1.0000 -0.0000
vn -0.0000 1.0000 -0.0000
vn -0.0000 -0.0000 1.0000
vt 0 1
vt 1 0
vt 1 1
vt 1 0
vt 0 1
vt 0 0
vt 1 1
vt 0 0
vt 1 0
vt 0 1
vt 1 0
vt 1 1
vt 0 0
vt 0 1
vt 0 0
usemtl mino3d_mat
f 3/1/1 5/2/1 2/3/1
f 7/1/2 12/2/2 5/3/2
f 13/4/3 9/5/3 12/6/3
f 12/7/4 2/8/4 5/9/4
f 7/10/5 10/11/5 13/12/5
f 6/1/1 2/2/1 1/3/1
f 10/4/3 14/5/3 9/6/3
f 9/7/4 1/8/4 2/9/4
f 3/10/5 15/11/5 10/7/5
f 8/1/1 1/2/1 4/3/1
f 15/4/3 17/5/3 14/6/3
f 18/4/6 4/5/6 17/6/6
f 14/7/4 4/8/4 1/9/4
f 11/1/1 6/2/1 8/3/1
f 16/1/2 15/2/2 6/3/2
f 20/4/3 18/5/3 15/6/3
f 19/4/6 8/5/6 18/6/6
f 16/10/5 19/11/5 20/12/5
f 3/1/1 7/13/1 5/2/1
f 7/1/2 13/13/2 12/2/2
f 13/4/3 10/7/3 9/5/3
f 12/7/4 9/14/4 2/8/4
f 7/10/5 3/15/5 10/11/5
f 6/1/1 3/13/1 2/2/1
f 10/4/3 15/7/3 14/5/3
f 9/7/4 14/14/4 1/8/4
f 3/10/5 6/15/5 15/11/5
f 8/1/1 6/13/1 1/2/1
f 15/4/3 18/7/3 17/5/3
f 18/4/6 8/3/6 4/5/6
f 14/7/4 17/14/4 4/8/4
f 11/1/1 16/13/1 6/2/1
f 16/1/2 20/13/2 15/2/2
f 20/4/3 19/7/3 18/5/3
f 19/4/6 11/7/6 8/5/6
f 16/10/5 11/15/5 19/11/5
