# Blender 5.2.0 LTS
# www.blender.org
mtllib piece_mat.mtl
o JpieceTri
v -0.500000 0.500000 0.500000
v 1.500000 -0.500000 0.500000
v 1.500000 0.500000 0.500000
v 0.500000 -0.500000 0.500000
v -0.500000 -0.500000 0.500000
v 0.500000 0.500000 0.500000
v -0.500000 1.500000 0.500000
v 1.500000 -0.500000 -0.500000
v -1.500000 0.500000 0.500000
v 1.500000 0.500000 -0.500000
v -1.500000 -0.500000 0.500000
v 0.500000 -0.500000 -0.500000
v -1.500000 1.500000 0.500000
v 0.500000 0.500000 -0.500000
v -0.500000 0.500000 -0.500000
v -0.500000 -0.500000 -0.500000
v -0.500000 1.500000 -0.500000
v -1.500000 0.500000 -0.500000
v -1.500000 -0.500000 -0.500000
v -1.500000 1.500000 -0.500000
vn -0.0000 -0.0000 1.0000
vn -1.0000 -0.0000 -0.0000
vn -0.0000 -0.0000 -1.0000
vn 1.0000 -0.0000 -0.0000
vn -0.0000 1.0000 -0.0000
vn -0.0000 -1.0000 -0.0000
vt 0.000000 1.000000
vt 1.000000 0.000000
vt 1.000000 1.000000
vt 0.000000 0.000000
s 0
usemtl mino3d_mat
f 7/1/1 9/2/1 1/3/1
f 13/1/2 18/2/2 9/3/2
f 20/2/3 15/1/3 18/4/3
f 17/2/4 1/1/4 15/4/4
f 13/1/5 17/2/5 20/3/5
f 1/1/1 11/2/1 5/3/1
f 9/1/2 19/2/2 11/3/2
f 18/2/3 16/1/3 19/4/3
f 19/3/6 5/4/6 11/2/6
f 6/1/1 5/2/1 4/3/1
f 15/2/3 12/1/3 16/4/3
f 16/3/6 4/4/6 5/2/6
f 1/1/5 14/2/5 15/3/5
f 3/1/1 4/2/1 2/3/1
f 14/2/3 8/1/3 12/4/3
f 10/2/4 2/1/4 8/4/4
f 12/3/6 2/4/6 4/2/6
f 6/1/5 10/2/5 14/3/5
f 7/1/1 13/4/1 9/2/1
f 13/1/2 20/4/2 18/2/2
f 20/2/3 17/3/3 15/1/3
f 17/2/4 7/3/4 1/1/4
f 13/1/5 7/4/5 17/2/5
f 1/1/1 9/4/1 11/2/1
f 9/1/2 18/4/2 19/2/2
f 18/2/3 15/3/3 16/1/3
f 19/3/6 16/1/6 5/4/6
f 6/1/1 1/4/1 5/2/1
f 15/2/3 14/3/3 12/1/3
f 16/3/6 12/1/6 4/4/6
f 1/1/5 6/4/5 14/2/5
f 3/1/1 6/4/1 4/2/1
f 14/2/3 10/3/3 8/1/3
f 10/2/4 3/3/4 2/1/4
f 12/3/6 8/1/6 2/4/6
f 6/1/5 3/4/5 10/2/5
