# Blender 5.2.0 LTS
# www.blender.org
mtllib piece_mat.mtl
o Jpiece
v -0.500000 0.500000 0.500000
v 1.500000 -0.500000 0.500000
v 1.500000 0.500000 0.500000
v 0.500000 -0.500000 0.500000
v -0.500000 -0.500000 0.500000
v 0.500000 0.500000 0.500000
v -0.500000 1.500000 0.500000
v 1.500000 -0.500000 -0.500000
v -1.500000 0.500000 0.500000
v 1.500000 0.500000 -0.500000
v -1.500000 -0.500000 0.500000
v 0.500000 -0.500000 -0.500000
v -1.500000 1.500000 0.500000
v 0.500000 0.500000 -0.500000
v -0.500000 0.500000 -0.500000
v -0.500000 -0.500000 -0.500000
v -0.500000 1.500000 -0.500000
v -1.500000 0.500000 -0.500000
v -1.500000 -0.500000 -0.500000
v -1.500000 1.500000 -0.500000
vn -0.0000 -0.0000 1.0000
vn -1.0000 -0.0000 -0.0000
vn -0.0000 -0.0000 -1.0000
vn 1.0000 -0.0000 -0.0000
vn -0.0000 1.0000 -0.0000
vn -0.0000 -1.0000 -0.0000
vt 1.000000 1.000000
vt 0.000000 1.000000
vt 0.000000 0.000000
vt 1.000000 0.000000
s 0
usemtl mino3d_mat
f 1/1/1 7/2/1 13/3/1 9/4/1
f 9/1/2 13/2/2 20/3/2 18/4/2
f 18/3/3 20/4/3 17/1/3 15/2/3
f 15/3/4 17/4/4 7/1/4 1/2/4
f 20/1/5 13/2/5 7/3/5 17/4/5
f 5/1/1 1/2/1 9/3/1 11/4/1
f 11/1/2 9/2/2 18/3/2 19/4/2
f 19/3/3 18/4/3 15/1/3 16/2/3
f 11/4/6 19/1/6 16/2/6 5/3/6
f 4/1/1 6/2/1 1/3/1 5/4/1
f 16/3/3 15/4/3 14/1/3 12/2/3
f 5/4/6 16/1/6 12/2/6 4/3/6
f 15/1/5 1/2/5 6/3/5 14/4/5
f 2/1/1 3/2/1 6/3/1 4/4/1
f 12/3/3 14/4/3 10/1/3 8/2/3
f 8/3/4 10/4/4 3/1/4 2/2/4
f 4/4/6 12/1/6 8/2/6 2/3/6
f 14/1/5 6/2/5 3/3/5 10/4/5
