mtllib piece_mat.mtl
o OpieceTri
v -1.000000 -1.000000 0.500000
v 0.000000 0.000000 0.500000
v 0.000000 -1.000000 0.500000
v -1.000000 -1.000000 -0.500000
v -1.000000 0.000000 0.500000
v 0.000000 1.000000 0.500000
v 0.000000 -1.000000 -0.500000
v -1.000000 1.000000 0.500000
v 0.000000 0.000000 -0.500000
v 1.000000 -1.000000 0.500000
v -1.000000 0.000000 -0.500000
v 0.000000 1.000000 -0.500000
v 1.000000 -1.000000 -0.500000
v -1.000000 1.000000 -0.500000
v 1.000000 0.000000 0.500000
v 1.000000 1.000000 0.500000
v 1.000000 0.000000 -0.500000
v 1.000000 1.000000 -0.500000
vn -0.0000 -0.0000 -1.0000
vn 1.0000 -0.0000 -0.0000
vn -0.0000 -0.0000 1.0000
vn -0.0000 1.0000 -0.0000
vn -1.0000 -0.0000 -0.0000
vn -0.0000 -1.0000 -0.0000
vt 0 1
vt 1 0
vt 1 1
vt 1 0
vt 0 1
vt 0 0
vt 0 1
vt 1 0
vt 1 1
vt 1 1
vt 0 0
vt 1 0
vt 0 0
vt 0 0
vt 0 1
usemtl mino3d_mat
f 12/1/1 17/2/1 9/3/1
f 18/4/2 15/5/2 17/6/2
f 16/4/3 2/5/3 15/6/3
f 12/7/4 16/8/4 18/9/4
f 8/1/5 11/2/5 5/3/5
f 14/1/1 9/2/1 11/3/1
f 6/4/3 5/5/3 2/6/3
f 14/7/4 6/8/4 12/9/4
f 9/1/1 13/2/1 7/3/1
f 17/4/2 10/5/2 13/6/2
f 15/4/3 3/5/3 10/6/3
f 13/10/6 3/11/6 7/12/6
f 5/1/5 4/2/5 1/3/5
f 11/1/1 7/2/1 4/3/1
f 2/4/3 1/5/3 3/6/3
f 7/3/6 1/11/6 4/12/6
f 12/1/1 18/13/1 17/2/1
f 18/4/2 16/10/2 15/5/2
f 16/4/3 6/10/3 2/5/3
f 12/7/4 6/14/4 16/8/4
f 8/1/5 14/13/5 11/2/5
f 14/1/1 12/13/1 9/2/1
f 6/4/3 8/10/3 5/5/3
f 14/7/4 8/14/4 6/8/4
f 9/1/1 17/13/1 13/2/1
f 17/4/2 15/10/2 10/5/2
f 15/4/3 2/10/3 3/5/3
f 13/10/6 10/15/6 3/11/6
f 5/1/5 11/13/5 4/2/5
f 11/1/1 9/13/1 7/2/1
f 2/4/3 5/3/3 1/5/3
f 7/3/6 3/15/6 1/11/6
