mtllib piece_mat.mtl
o Opiece
v -1.000000 -1.000000 0.500000
v 0.000000 0.000000 0.500000
v 0.000000 -1.000000 0.500000
v -1.000000 -1.000000 -0.500000
v -1.000000 0.000000 0.500000
v 0.000000 1.000000 0.500000
v 0.000000 -1.000000 -0.500000
v -1.000000 1.000000 0.500000
v 0.000000 0.000000 -0.500000
v 1.000000 -1.000000 0.500000
v -1.000000 0.000000 -0.500000
v 0.000000 1.000000 -0.500000
v 1.000000 -1.000000 -0.500000
v -1.000000 1.000000 -0.500000
v 1.000000 0.000000 0.500000
v 1.000000 1.000000 0.500000
v 1.000000 0.000000 -0.500000
v 1.000000 1.000000 -0.500000
vn -0.0000 -0.0000 -1.0000
vn 1.0000 -0.0000 -0.0000
vn -0.0000 -0.0000 1.0000
vn -0.0000 1.0000 -0.0000
vn -1.0000 -0.0000 -0.0000
vn -0.0000 -1.0000 -0.0000
vt 1 1
vt 0 1
vt 0 0
vt 1 0
vt 0 0
vt 1 0
vt 1 1
vt 0 1
vt 1 1
vt 0 1
vt 0 0
vt 1 0
vt 1 0
vt 0 1
vt 0 0
usemtl mino3d_mat
f 9/1/1 12/2/1 18/3/1 17/4/1
f 17/5/2 18/6/2 16/7/2 15/8/2
f 15/5/3 16/6/3 6/7/3 2/8/3
f 18/9/4 12/10/4 6/11/4 16/12/4
f 5/1/5 8/2/5 14/3/5 11/4/5
f 11/1/1 14/2/1 12/3/1 9/4/1
f 2/5/3 6/6/3 8/7/3 5/8/3
f 12/9/4 14/10/4 8/11/4 6/12/4
f 7/1/1 9/2/1 17/3/1 13/4/1
f 13/5/2 17/6/2 15/7/2 10/8/2
f 10/5/3 15/6/3 2/7/3 3/8/3
f 7/13/6 13/7/6 10/14/6 3/15/6
f 1/1/5 5/2/5 11/3/5 4/4/5
f 4/1/1 11/2/1 9/3/1 7/4/1
f 3/5/3 2/6/3 5/1/3 1/8/3
f 4/13/6 7/1/6 3/14/6 1/15/6
