mtllib piece_mat.mtl
o SpieceTri
v -0.500000 -1.000000 0.500000
v 1.500000 0.000000 0.500000
v 1.500000 1.000000 0.500000
v 0.500000 -1.000000 0.500000
v 0.500000 1.000000 0.500000
v -0.500000 0.000000 0.500000
v 1.500000 0.000000 -0.500000
v 0.500000 0.000000 0.500000
v -0.500000 1.000000 0.500000
v 1.500000 1.000000 -0.500000
v -1.500000 -1.000000 0.500000
v -1.500000 0.000000 0.500000
v 0.500000 1.000000 -0.500000
v -0.500000 -1.000000 -0.500000
v 0.500000 -1.000000 -0.500000
v -0.500000 1.000000 -0.500000
v -0.500000 0.000000 -0.500000
v 0.500000 0.000000 -0.500000
v -1.500000 -1.000000 -0.500000
v -1.500000 0.000000 -0.500000
vn -0.0000 -0.0000 1.0000
vn -1.0000 -0.0000 -0.0000
vn -0.0000 -0.0000 -1.0000
vn -0.0000 -1.0000 -0.0000
vn -0.0000 1.0000 -0.0000
vn 1.0000 -0.0000 -0.0000
vt 0 1
vt 1 0
vt 1 1
vt 1 0
vt 0 1
vt 0 0
vt 1 1
vt 0 0
vt 1 0
vt 0 1
vt 1 0
vt 1 1
vt 0 0
vt 0 1
vt 0 0
usemtl mino3d_mat
f 6/1/1 11/2/1 1/3/1
f 12/1/2 19/2/2 11/3/2
f 20/4/3 14/5/3 19/6/3
f 19/7/4 1/8/4 11/9/4
f 12/10/5 17/11/5 20/12/5
f 8/1/1 1/2/1 4/3/1
f 17/4/3 15/5/3 14/6/3
f 18/4/6 4/5/6 15/6/6
f 14/7/4 4/8/4 1/9/4
f 5/1/1 6/2/1 8/3/1
f 9/1/2 17/2/2 6/3/2
f 16/4/3 18/5/3 17/6/3
f 9/10/5 13/11/5 16/12/5
f 3/1/1 8/2/1 2/3/1
f 13/4/3 7/5/3 18/6/3
f 10/4/6 2/5/6 7/6/6
f 18/7/4 2/8/4 8/9/4
f 5/10/5 10/11/5 13/7/5
f 6/1/1 12/13/1 11/2/1
f 12/1/2 20/13/2 19/2/2
f 20/4/3 17/7/3 14/5/3
f 19/7/4 14/14/4 1/8/4
f 12/10/5 6/15/5 17/11/5
f 8/1/1 6/13/1 1/2/1
f 17/4/3 18/7/3 15/5/3
f 18/4/6 8/3/6 4/5/6
f 14/7/4 15/14/4 4/8/4
f 5/1/1 9/13/1 6/2/1
f 9/1/2 16/13/2 17/2/2
f 16/4/3 13/7/3 18/5/3
f 9/10/5 5/15/5 13/11/5
f 3/1/1 5/13/1 8/2/1
f 13/4/3 10/7/3 7/5/3
f 10/4/6 3/7/6 2/5/6
f 18/7/4 7/14/4 2/8/4
f 5/10/5 3/15/5 10/11/5
