mtllib piece_mat.mtl
o Spiece
v -0.500000 -1.000000 0.500000
v 1.500000 0.000000 0.500000
v 1.500000 1.000000 0.500000
v 0.500000 -1.000000 0.500000
v 0.500000 1.000000 0.500000
v -0.500000 0.000000 0.500000
v 1.500000 0.000000 -0.500000
v 0.500000 0.000000 0.500000
v -0.500000 1.000000 0.500000
v 1.500000 1.000000 -0.500000
v -1.500000 -1.000000 0.500000
v -1.500000 0.000000 0.500000
v 0.500000 1.000000 -0.500000
v -0.500000 -1.000000 -0.500000
v 0.500000 -1.000000 -0.500000
v -0.500000 1.000000 -0.500000
v -0.500000 0.000000 -0.500000
v 0.500000 0.000000 -0.500000
v -1.500000 -1.000000 -0.500000
v -1.500000 0.000000 -0.500000
vn -0.0000 -0.0000 1.0000
vn -1.0000 -0.0000 -0.0000
vn -0.0000 -0.0000 -1.0000
vn -0.0000 -1.0000 -0.0000
vn -0.0000 1.0000 -0.0000
vn 1.0000 -0.0000 -0.0000
vt 1 1
vt 0 1
vt 0 0
vt 1 0
vt 0 0
vt 1 0
vt 1 1
vt 0 1
vt 1 0
vt 0 1
vt 0 0
vt 1 1
vt 0 1
vt 0 0
vt 1 0
usemtl mino3d_mat
f 1/1/1 6/2/1 12/3/1 11/4/1
f 11/1/2 12/2/2 20/3/2 19/4/2
f 19/5/3 20/6/3 17/7/3 14/8/3
f 11/9/4 19/7/4 14/10/4 1/11/4
f 20/12/5 12/13/5 6/14/5 17/15/5
f 4/1/1 8/2/1 6/3/1 1/4/1
f 14/5/3 17/6/3 18/7/3 15/8/3
f 15/5/6 18/6/6 8/1/6 4/8/6
f 1/9/4 14/7/4 15/10/4 4/11/4
f 8/1/1 5/2/1 9/3/1 6/4/1
f 6/1/2 9/2/2 16/3/2 17/4/2
f 17/5/3 16/6/3 13/7/3 18/8/3
f 16/12/5 9/13/5 5/14/5 13/15/5
f 2/1/1 3/2/1 5/3/1 8/4/1
f 18/5/3 13/6/3 10/7/3 7/8/3
f 7/5/6 10/6/6 3/7/6 2/8/6
f 8/9/4 18/7/4 7/10/4 2/11/4
f 13/7/5 5/13/5 3/14/5 10/15/5
