mtllib piece_mat.mtl
o Tpiece
v -0.500000 0.500000 0.500000
v -1.500000 -0.500000 0.500000
v -0.500000 -0.500000 0.500000
v -1.500000 0.500000 0.500000
v -0.500000 1.500000 0.500000
v 1.500000 -0.500000 0.500000
v -1.500000 -0.500000 -0.500000
v 1.500000 0.500000 0.500000
v -0.500000 0.500000 -0.500000
v 1.500000 -0.500000 -0.500000
v -1.500000 0.500000 -0.500000
v 1.500000 0.500000 -0.500000
v -0.500000 -0.500000 -0.500000
v -0.500000 1.500000 -0.500000
v 0.500000 0.500000 0.500000
v 0.500000 -0.500000 0.500000
v 0.500000 1.500000 0.500000
v 0.500000 0.500000 -0.500000
v 0.500000 -0.500000 -0.500000
v 0.500000 1.500000 -0.500000
vn -1.0000 -0.0000 -0.0000
vn -0.0000 -0.0000 -1.0000
vn 1.0000 -0.0000 -0.0000
vn -0.0000 -0.0000 1.0000
vn -0.0000 1.0000 -0.0000
vn -0.0000 -1.0000 -0.0000
vt 1 1
vt 0 1
vt 0 0
vt 1 0
vt 1 1
vt 0 0
vt 1 0
vt 1 1
vt 0 1
vt 0 1
vt 0 0
vt 1 0
vt 1 0
vt 0 1
vt 0 0
usemtl mino3d_mat
f 1/1/1 5/2/1 14/3/1 9/4/1
f 9/5/2 14/2/2 20/3/2 18/4/2
f 18/6/3 20/7/3 17/8/3 15/9/3
f 15/6/4 17/7/4 5/8/4 1/9/4
f 20/5/5 14/10/5 5/11/5 17/12/5
f 13/1/2 9/2/2 18/3/2 19/4/2
f 16/6/4 15/7/4 1/1/4 3/9/4
f 13/13/6 19/1/6 16/14/6 3/15/6
f 2/1/1 4/2/1 11/3/1 7/4/1
f 7/1/2 11/2/2 9/3/2 13/4/2
f 3/6/4 1/7/4 4/8/4 2/9/4
f 7/13/6 13/1/6 3/14/6 2/15/6
f 9/5/5 11/10/5 4/11/5 1/12/5
f 19/1/2 18/2/2 12/3/2 10/4/2
f 10/6/3 12/7/3 8/8/3 6/9/3
f 6/6/4 8/7/4 15/8/4 16/9/4
f 19/13/6 10/8/6 6/14/6 16/15/6
f 12/5/5 18/10/5 15/11/5 8/12/5
