mtllib piece_mat.mtl
o TPieceTri
v -0.500000 0.500000 0.500000
v -1.500000 -0.500000 0.500000
v -0.500000 -0.500000 0.500000
v -1.500000 0.500000 0.500000
v -0.500000 1.500000 0.500000
v 1.500000 -0.500000 0.500000
v -1.500000 -0.500000 -0.500000
v 1.500000 0.500000 0.500000
v -0.500000 0.500000 -0.500000
v 1.500000 -0.500000 -0.500000
v -1.500000 0.500000 -0.500000
v 1.500000 0.500000 -0.500000
v -0.500000 -0.500000 -0.500000
v -0.500000 1.500000 -0.500000
v 0.500000 0.500000 0.500000
v 0.500000 -0.500000 0.500000
v 0.500000 1.500000 0.500000
v 0.500000 0.500000 -0.500000
v 0.500000 -0.500000 -0.500000
v 0.500000 1.500000 -0.500000
vn -1.0000 -0.0000 -0.0000
vn -0.0000 -0.0000 -1.0000
vn 1.0000 -0.0000 -0.0000
vn -0.0000 -0.0000 1.0000
vn -0.0000 1.0000 -0.0000
vn -0.0000 -1.0000 -0.0000
vt 0 1
vt 1 0
vt 1 1
vt 1 1
vt 1 0
vt 0 1
vt 0 0
vt 0 1
vt 1 0
vt 0 0
vt 1 0
vt 1 1
vt 0 0
vt 0 0
vt 0 1
usemtl mino3d_mat
f 5/1/1 9/2/1 1/3/1
f 14/1/2 18/2/2 9/4/2
f 20/5/3 15/6/3 18/7/3
f 17/5/4 1/6/4 15/7/4
f 14/8/5 17/9/5 20/4/5
f 9/1/2 19/2/2 13/3/2
f 15/5/4 3/6/4 16/7/4
f 19/3/6 3/10/6 13/11/6
f 4/1/1 7/2/1 2/3/1
f 11/1/2 13/2/2 7/3/2
f 1/5/4 2/6/4 3/7/4
f 13/3/6 2/10/6 7/11/6
f 11/8/5 1/9/5 9/4/5
f 18/1/2 10/2/2 19/3/2
f 12/5/3 6/6/3 10/7/3
f 8/5/4 16/6/4 6/7/4
f 10/12/6 16/10/6 19/11/6
f 18/8/5 8/9/5 12/4/5
f 5/1/1 14/13/1 9/2/1
f 14/1/2 20/13/2 18/2/2
f 20/5/3 17/12/3 15/6/3
f 17/5/4 5/12/4 1/6/4
f 14/8/5 5/14/5 17/9/5
f 9/1/2 18/13/2 19/2/2
f 15/5/4 1/3/4 3/6/4
f 19/3/6 16/15/6 3/10/6
f 4/1/1 11/13/1 7/2/1
f 11/1/2 9/13/2 13/2/2
f 1/5/4 4/12/4 2/6/4
f 13/3/6 3/15/6 2/10/6
f 11/8/5 4/14/5 1/9/5
f 18/1/2 12/13/2 10/2/2
f 12/5/3 8/12/3 6/6/3
f 8/5/4 15/12/4 16/6/4
f 10/12/6 6/15/6 16/10/6
f 18/8/5 15/14/5 8/9/5
